<svg viewBox="0 0 72 72" xmlns="http://www.w3.org/2000/svg"><circle cx="8.627" cy="51.48" fill="#ea5a47" r="18" stroke-width="1.2" transform="matrix(.70710678 -.70710678 .70710678 .70710678 0 0)"/><g fill="none" stroke-linecap="round" stroke-linejoin="round"><circle cx="8.675" cy="51.41" r="18.22" stroke="#000" stroke-miterlimit="10" stroke-width="2" transform="matrix(.70710678 -.70710678 .70710678 .70710678 0 0)"/><path d="m12 60.7 13.79-13.79" stroke="#000" stroke-miterlimit="10" stroke-width="2"/><path d="m42.69 30.99c.1901-.7095 1.05-.09377 1.179.316.3497 1.11-.8196 1.996-1.811 2.042-1.774.0823-2.992-1.659-2.906-3.306.1275-2.417 2.507-4.008 4.801-3.769 3.058.3191 5.032 3.357 4.632 6.297-.5031 3.699-4.208 6.059-7.792 5.495-4.341-.6831-7.089-5.059-6.359-9.287.8609-4.982 5.911-8.12 10.78-7.222 5.624 1.037 9.152 6.763 8.085 12.28-1.213 6.266-7.615 10.18-13.77 8.948-6.907-1.387-11.22-8.467-9.811-15.27 1.562-7.549 9.32-12.25 16.76-10.67" stroke="#000" stroke-width="1.864"/><path d="m42.69 30.99c.1901-.7095 1.05-.09377 1.179.316.3497 1.11-.8196 1.996-1.811 2.042-1.774.0823-2.992-1.659-2.906-3.306.1275-2.417 2.507-4.008 4.801-3.769 3.058.3191 5.032 3.357 4.632 6.297-.5031 3.699-4.208 6.059-7.792 5.495-4.341-.6831-7.089-5.059-6.359-9.287.8609-4.982 5.911-8.12 10.78-7.222 5.624 1.037 9.152 6.763 8.085 12.28-1.213 6.266-7.615 10.18-13.77 8.948-6.907-1.387-11.22-8.467-9.811-15.27 1.562-7.549 9.32-12.25 16.76-10.67" stroke="#fff" stroke-width="1.864"/></g></svg>